<svg xmlns="http://www.w3.org/2000/svg" width="768" height="768" viewBox="0 0 256 256">
  <rect width="256" height="256" fill="white"/>
  <defs>
    <mask id="courser-cutouts" x="0" y="0" width="256" height="256" maskUnits="userSpaceOnUse" style="mask-type:luminance">
      <rect width="256" height="256" fill="white"/>
      <circle cx="122" cy="111" r="10" fill="black"/>
      <path d="M 122 78.118 A 126 126 0 0 1 254.119 139 L 243.727 145 A 114 114 0 0 0 124.19 89.916 Z" fill="black"/>
    </mask>
  </defs><g opacity="0.14">  <g fill="currentColor" mask="url(#courser-cutouts)">
    <circle cx="156" cy="128" r="90"/>
    <path d="M 11 102 A 90 90 0 0 1 100 91.084 L 100 106.183 A 207.162 207.162 0 0 1 11 102 Z"/>
  </g></g>
  <g fill="none" stroke="#408b91" stroke-width="0.7">
    <circle cx="156" cy="128" r="90"/>
    <circle cx="145" cy="202" r="126"/>
    <circle cx="145" cy="202" r="114"/>
    <circle cx="65" cy="174" r="90"/>
    <circle cx="65" cy="-98" r="207.162"/>
    <circle cx="122" cy="111" r="10"/>
    <path stroke-dasharray="2 3" d="M 156 20 V 234 M 20 128 H 250 M 145 64 V 246 M 32 202 H 250"/>
    <path d="M 152 128 H 160 M 156 124 V 132 M 141 202 H 149 M 145 198 V 206 M 61 174 H 69 M 65 170 V 178"/>
  </g>
</svg>